<?xml version="1.0" encoding="UTF-8" standalone="no"?>
<!-- Created with Inkscape (http://www.inkscape.org/) -->

<svg
   width="67.277855mm"
   height="20.665384mm"
   viewBox="0 0 67.277855 20.665384"
   version="1.1"
   id="svg1"
   xml:space="preserve"
   xmlns="http://www.w3.org/2000/svg"
   xmlns:svg="http://www.w3.org/2000/svg"><defs
     id="defs1" /><path
     id="path13"
     style="font-variation-settings:'wght' 408;display:inline;opacity:1;fill:#ffffff;fill-opacity:1;stroke-width:0.181946"
     d="m 13.503697,20.481966 c -0.03886,-4.162211 -1.574307,-8.271067 -2.567273,-10.14097 0.615913,-1.2947349 2.94186,-3.4875116 3.317434,-3.7907253 2.846974,3.4609493 3.418624,6.8098073 4.117307,10.7506803 -1.475295,1.751035 -2.982758,2.544633 -4.867468,3.181015 z M 17.091156,2.2759278 C 13.660313,4.6063912 11.136019,7.9762985 10.147081,9.810679 8.7497289,10.005969 5.6818221,9.278877 5.228104,9.1338551 6.5067841,4.9065138 8.8012059,2.7164708 11.647528,-2.5206269e-6 13.888509,0.26554056 15.53945,1.0673875 17.091156,2.2759278 Z M 0.10352238,8.7804481 C 3.739166,10.467259 7.8988647,11.056821 9.9459651,10.893051 10.797555,11.990295 11.681903,15.085504 11.780165,15.544055 7.5385807,16.52666 4.5416291,15.642317 0.82410101,14.545073 -0.01111463,12.678119 -0.12575215,10.84392 0.10352238,8.7804481 Z M 8.2640724,1.8709531 C 7.5975943,2.2976313 5.5328482,4.9294708 5.1977917,6.1470228 4.2599376,5.1889806 3.550541,3.9938017 3.0424224,3.071212 4.2864187,1.7439445 5.9733005,0.89974597 7.3553374,0.47269935 7.7936199,1.1478075 8.2640724,1.8709531 8.2640724,1.8709531 Z M 18.563722,12.813233 c -0.183787,-1.369496 -1.021119,-3.683788 -1.771903,-4.8220729 1.248524,-0.298582 2.808578,-0.3265735 3.812539,-0.2769189 0.396567,1.5889823 0.444193,3.4897718 0.03413,5.0341538 -0.833169,0.02336 -2.07478,0.06484 -2.07478,0.06484 z M 4.1831072,16.427049 c 0.7179652,0.440044 4.1015611,0.960363 5.343233,0.610359 C 9.289732,18.356343 8.6588977,19.735319 8.1039725,20.665375 6.2485429,20.243706 4.6104297,19.321122 3.4527371,18.288061 3.7848031,17.523568 4.1831072,16.427049 4.1831072,16.427049 Z" /><text
     xml:space="preserve"
     style="font-style:normal;font-variant:normal;font-weight:600;font-stretch:normal;font-size:16.2651px;line-height:0;font-family:'DM Sans';-inkscape-font-specification:'DM Sans, Semi-Bold';font-variant-ligatures:normal;font-variant-caps:normal;font-variant-numeric:normal;font-variant-east-asian:normal;text-align:start;letter-spacing:-0.721781px;writing-mode:lr-tb;direction:ltr;text-anchor:start;opacity:1;fill:#ffffff;fill-opacity:0.980392;stroke:#000000;stroke-width:0.275298;stroke-opacity:0"
     x="27.281368"
     y="13.589313"
     id="text2"
     transform="scale(0.98115044,1.0192117)"><tspan
       id="tspan2"
       style="font-style:normal;font-variant:normal;font-weight:600;font-stretch:normal;font-size:16.2651px;line-height:0;font-family:'DM Sans';-inkscape-font-specification:'DM Sans, Semi-Bold';font-variant-ligatures:normal;font-variant-caps:normal;font-variant-numeric:normal;font-variant-east-asian:normal;letter-spacing:-0.721781px;fill:#ffffff;fill-opacity:0.980392;stroke:#000000;stroke-width:0.275298;stroke-opacity:0"
       x="27.281368"
       y="13.589313">Xuma</tspan></text><text
     xml:space="preserve"
     style="font-style:normal;font-variant:normal;font-weight:600;font-stretch:normal;font-size:4.40003px;line-height:0;font-family:'DM Sans';-inkscape-font-specification:'DM Sans, Semi-Bold';font-variant-ligatures:normal;font-variant-caps:normal;font-variant-numeric:normal;font-variant-east-asian:normal;text-align:start;letter-spacing:-0.195255px;writing-mode:lr-tb;direction:ltr;text-anchor:start;fill:#ffffff;fill-opacity:0.980392;stroke:#000000;stroke-width:0.225543;stroke-dasharray:none;stroke-opacity:0"
     x="34.383064"
     y="20.320789"
     id="text2-8"
     transform="scale(1.0204164,0.9799921)"><tspan
       id="tspan2-8"
       style="font-style:normal;font-variant:normal;font-weight:600;font-stretch:normal;font-size:4.40003px;line-height:0;font-family:'DM Sans';-inkscape-font-specification:'DM Sans, Semi-Bold';font-variant-ligatures:normal;font-variant-caps:normal;font-variant-numeric:normal;font-variant-east-asian:normal;letter-spacing:-0.195255px;fill:#ffffff;fill-opacity:0.980392;stroke:#000000;stroke-width:0.225543;stroke-dasharray:none;stroke-opacity:0"
       x="34.383064"
       y="20.320789"><tspan
         style="font-style:normal;font-variant:normal;font-weight:300;font-stretch:normal;font-family:'DM Sans';-inkscape-font-specification:'DM Sans Light';letter-spacing:0.879138px;fill:#ffffff;stroke:#000000;stroke-width:0.225543;stroke-dasharray:none;stroke-opacity:0"
         id="tspan3">GRUPO</tspan><tspan
         style="font-style:normal;font-variant:normal;font-weight:600;font-stretch:normal;font-size:4.9729px;font-family:'DM Sans';-inkscape-font-specification:'DM Sans Semi-Bold';letter-spacing:0.0666015px;fill:#ffffff;stroke:#000000;stroke-width:0.225543;stroke-dasharray:none;stroke-opacity:0"
         id="tspan4" /></tspan></text><text
     xml:space="preserve"
     style="font-style:normal;font-variant:normal;font-weight:600;font-stretch:normal;font-size:6.75429px;line-height:0;font-family:'DM Sans';-inkscape-font-specification:'DM Sans Semi-Bold';font-variant-ligatures:normal;font-variant-caps:normal;font-variant-numeric:normal;font-variant-east-asian:normal;text-align:start;letter-spacing:0.0791523px;writing-mode:lr-tb;direction:ltr;text-anchor:start;opacity:1;fill:#ffffff;fill-opacity:0.980392;stroke:none;stroke-width:0.210069;stroke-opacity:1"
     x="56.01466"
     y="19.929873"
     id="text5"
     transform="scale(0.99650465,1.0035076)"><tspan
       id="tspan5"
       style="letter-spacing:0.0791523px;fill:#ffffff;stroke-width:0.210069"
       x="56.01466"
       y="19.929873">ilao</tspan></text></svg>
